<svg width="32" height="26" viewBox="0 0 32 26" fill="none" xmlns="http://www.w3.org/2000/svg">
<path d="M19.0427 17.5486C19.0427 17.6729 19.0921 17.7921 19.18 17.88C19.2679 17.968 19.3871 18.0173 19.5114 18.0173H20.8902C20.8049 18.1789 20.6772 18.3141 20.5208 18.4085C20.3644 18.5029 20.1852 18.5528 20.0025 18.553H19.5114C19.4197 18.553 19.3299 18.58 19.2533 18.6305C19.1766 18.6811 19.1166 18.753 19.0805 18.8374C19.0444 18.9218 19.0338 19.015 19.0502 19.1053C19.0665 19.1956 19.1091 19.2791 19.1724 19.3455L21.1367 21.4022C21.1792 21.4467 21.2301 21.4824 21.2864 21.5072C21.3427 21.5321 21.4034 21.5456 21.4649 21.547C21.5265 21.5485 21.5877 21.5377 21.6451 21.5155C21.7025 21.4933 21.7549 21.4599 21.7994 21.4174C21.844 21.3749 21.8797 21.324 21.9045 21.2677C21.9294 21.2114 21.9429 21.1507 21.9443 21.0892C21.9457 21.0276 21.935 20.9664 21.9128 20.909C21.8905 20.8516 21.8572 20.7992 21.8147 20.7547L20.5361 19.416C20.864 19.3214 21.1613 19.1425 21.3983 18.8971C21.6353 18.6516 21.8037 18.3483 21.8868 18.0173H22.2124C22.3367 18.0173 22.4559 17.968 22.5438 17.88C22.6318 17.7921 22.6811 17.6729 22.6811 17.5486C22.6811 17.4243 22.6318 17.305 22.5438 17.2171C22.4559 17.1292 22.3367 17.0798 22.2124 17.0798H21.8869C21.84 16.8911 21.7648 16.7105 21.6639 16.5442H22.2123C22.3366 16.5442 22.4559 16.4948 22.5438 16.4069C22.6317 16.319 22.6811 16.1997 22.6811 16.0754C22.6811 15.9511 22.6317 15.8319 22.5438 15.7439C22.4559 15.656 22.3366 15.6067 22.2123 15.6067H19.5114C19.3871 15.6067 19.2679 15.656 19.18 15.7439C19.0921 15.8319 19.0427 15.9511 19.0427 16.0754C19.0427 16.1997 19.0921 16.319 19.18 16.4069C19.2679 16.4948 19.3871 16.5442 19.5114 16.5442H20.0025C20.1852 16.5443 20.3644 16.5943 20.5208 16.6887C20.6772 16.783 20.8049 16.9183 20.8902 17.0798H19.5114C19.3871 17.0798 19.2679 17.1292 19.18 17.2171C19.0921 17.305 19.0427 17.4242 19.0427 17.5485V17.5486ZM29.6563 11.735H17.8511L17.4846 8.12147C17.4242 7.5423 17.2526 6.98022 16.9793 6.46603L16.7752 6.0819L16.7676 6.06697C16.7666 6.06497 16.7656 6.06297 16.7646 6.06103L15.0505 2.6709C14.9139 2.40065 14.7078 2.17165 14.4534 2.00745C14.1989 1.84325 13.9054 1.74979 13.6028 1.73665C13.5855 1.73595 13.5681 1.73616 13.5508 1.73728L12.8178 1.78703C10.6216 1.93607 8.42541 2.08493 6.22932 2.23359L5.25251 2.30015C5.09123 2.29508 4.93005 2.28744 4.76901 2.27722C4.65445 2.2699 4.53757 2.2609 4.41482 2.25022C4.39209 2.03768 4.30373 1.83749 4.16203 1.67747C4.02032 1.51744 3.8323 1.40551 3.62407 1.35722L0.582637 0.595342C0.462038 0.565141 0.334381 0.584084 0.227749 0.648004C0.121117 0.711925 0.044245 0.815587 0.0140434 0.936186C-0.0161581 1.05678 0.00278508 1.18444 0.0667057 1.29107C0.130626 1.39771 0.234288 1.47458 0.354887 1.50478L3.40064 2.26778L3.41095 2.27022C3.43518 2.27573 3.45623 2.29064 3.46948 2.31166C3.48274 2.33268 3.48711 2.3581 3.48164 2.38234L1.96457 9.07522C1.96187 9.08723 1.95681 9.09859 1.94971 9.10864C1.94261 9.1187 1.93359 9.12725 1.92317 9.13382C1.91276 9.14038 1.90115 9.14483 1.88902 9.1469C1.87688 9.14898 1.86445 9.14864 1.85245 9.1459L0.57245 8.85572C0.512411 8.8421 0.450279 8.84045 0.389601 8.85085C0.328923 8.86125 0.270888 8.8835 0.218809 8.91633C0.16673 8.94916 0.121627 8.99192 0.0860748 9.04218C0.0505228 9.09244 0.0252182 9.14921 0.0116059 9.20925C-0.00200642 9.26929 -0.00365996 9.33142 0.00673971 9.3921C0.0171394 9.45277 0.0393886 9.51081 0.072217 9.56289C0.105045 9.61497 0.14781 9.66007 0.198069 9.69562C0.248329 9.73118 0.305098 9.75648 0.365137 9.77009L1.6452 10.0602C1.72064 10.0774 1.79777 10.0861 1.87514 10.0861C2.10869 10.0855 2.33511 10.0056 2.51743 9.85967C2.69975 9.7137 2.82717 9.51022 2.87889 9.28247L2.88639 9.24934L3.78757 9.87203C4.01251 10.0275 4.25799 10.1509 4.51695 10.2387L5.77257 10.6668C5.59135 10.7899 5.44594 10.9589 5.35112 11.1564C5.2563 11.3539 5.21544 11.573 5.2327 11.7915C5.23333 11.8038 5.23439 11.8162 5.23595 11.8288C5.26499 12.1374 5.40813 12.424 5.63735 12.6326C5.86657 12.8412 6.16539 12.9568 6.47533 12.9567C6.48989 12.9567 6.5047 12.9565 6.51939 12.956C6.79301 12.9465 7.06672 12.9369 7.34051 12.9272C7.2286 13.1603 7.18808 13.4212 7.22403 13.6772C7.25998 13.9333 7.3708 14.173 7.54257 14.3662C7.71434 14.5594 7.93939 14.6976 8.18944 14.7633C8.43949 14.829 8.70338 14.8193 8.94795 14.7355L9.72376 14.4701V23.0751C9.72446 23.6965 9.97161 24.2922 10.411 24.7316C10.8504 25.171 11.4461 25.4181 12.0675 25.4188H29.6563C30.2776 25.4181 30.8734 25.171 31.3128 24.7316C31.7522 24.2922 31.9993 23.6965 32 23.0751V14.0788C31.9993 13.4574 31.7522 12.8617 31.3128 12.4223C30.8734 11.9829 30.2776 11.7357 29.6563 11.735ZM6.48689 12.019C6.40793 12.0216 6.33099 11.9938 6.27187 11.9414C6.21276 11.889 6.17595 11.8159 6.16901 11.7372C6.1687 11.7336 6.16832 11.73 6.16789 11.7264L6.1677 11.7232C6.16119 11.6503 6.18086 11.5775 6.2232 11.5178C6.26554 11.4581 6.32776 11.4155 6.3987 11.3975C6.48414 11.376 6.64008 11.3267 6.88683 11.2481C6.98801 11.2158 7.1042 11.1788 7.1937 11.1512L8.8062 11.701L8.44582 11.9506C7.79257 11.9737 7.13964 11.9965 6.48689 12.019ZM9.8097 13.4499L8.64345 13.8488C8.59419 13.8656 8.54198 13.8719 8.49014 13.8674C8.4383 13.8628 8.38797 13.8476 8.34236 13.8225C8.29675 13.7975 8.25685 13.7632 8.22522 13.7219C8.19359 13.6806 8.17091 13.6331 8.15864 13.5825C8.14083 13.5073 8.14645 13.4285 8.17475 13.3566C8.20305 13.2847 8.25267 13.2232 8.31695 13.1803L8.80839 12.8399C8.85753 12.8172 8.90236 12.7861 8.94089 12.748L9.82039 12.1388L10.3776 12.456C10.1087 12.7351 9.91356 13.0766 9.8097 13.4499ZM9.84251 11.0727C9.81684 11.058 9.78985 11.0459 9.76189 11.0363L7.36601 10.2195L7.3592 10.2172L4.81826 9.3509C4.64145 9.29098 4.47384 9.20673 4.32026 9.10059L3.23401 8.34997C3.19431 8.32255 3.1506 8.30142 3.10445 8.28734L4.26295 3.17672C4.2722 3.17809 4.28139 3.17984 4.29089 3.18065C4.6091 3.20921 4.9281 3.2283 5.24745 3.2379C5.26176 3.23834 5.27651 3.23815 5.29101 3.23715L6.29289 3.16891C8.48922 3.02045 10.6854 2.87161 12.8813 2.7224L13.5851 2.67459C13.7171 2.68422 13.8444 2.72785 13.9545 2.80123C14.0646 2.87461 14.1539 2.97524 14.2136 3.09334L15.9277 6.4834L15.9427 6.5129C15.9442 6.5159 15.9458 6.51888 15.9473 6.52184L16.1513 6.90559C16.3679 7.31318 16.504 7.7587 16.5521 8.21778L16.9088 11.735H15.7611L15.4446 9.16578C15.4362 9.09805 15.4132 9.03296 15.3771 8.97505C15.341 8.91715 15.2927 8.86782 15.2356 8.83053L14.6849 8.47122C14.6818 8.46915 14.6791 8.46684 14.676 8.46478L13.2339 7.52465C13.0754 7.42138 12.8974 7.35176 12.7109 7.32011C12.5243 7.28846 12.3333 7.29545 12.1496 7.34065C11.9659 7.38585 11.7934 7.4683 11.6429 7.58288C11.4923 7.69747 11.3669 7.84174 11.2744 8.00678C11.195 8.14815 11.1413 8.30251 11.1158 8.46265C11.1117 8.48622 11.1084 8.51059 11.1062 8.53415C11.1008 8.58299 11.0981 8.63209 11.0981 8.68122C11.0972 8.89042 11.1442 9.09706 11.2356 9.28527C11.3269 9.47349 11.4601 9.63829 11.625 9.76703L15.179 12.5652L15.1803 12.5662L15.9243 13.152C16.0032 13.2133 16.0653 13.2934 16.1051 13.385C16.1556 13.5017 16.1686 13.6312 16.1421 13.7556C16.132 13.802 16.1163 13.847 16.0956 13.8898C16.0946 13.892 16.0934 13.8942 16.0924 13.8964C16.0423 13.9973 15.965 14.0822 15.8691 14.1414C15.7732 14.2006 15.6626 14.2317 15.5499 14.2312C15.4451 14.2315 15.3421 14.2041 15.2512 14.152L9.84251 11.0727ZM16.7318 14.6192C16.7514 14.5958 16.7703 14.5719 16.7883 14.5475H27.8729C27.9566 14.8632 28.1222 15.151 28.3531 15.3819C28.584 15.6128 28.8719 15.7785 29.1875 15.8622V21.2917C28.8719 21.3753 28.584 21.541 28.3531 21.7719C28.1222 22.0028 27.9566 22.2907 27.8729 22.6063H13.8509C13.7672 22.2907 13.6015 22.0028 13.3706 21.7719C13.1398 21.541 12.8519 21.3753 12.5363 21.2917V15.8622C12.8519 15.7785 13.1398 15.6128 13.3706 15.3819C13.6015 15.151 13.7672 14.8632 13.8509 14.5475H14.0511L14.7875 14.9668C15.1011 15.1452 15.4673 15.2081 15.8225 15.1446C16.1777 15.0812 16.4994 14.8952 16.7318 14.6192ZM14.7281 11.0169L12.2038 9.02947C12.151 8.98812 12.1084 8.93522 12.0792 8.87484C12.0501 8.81446 12.0352 8.7482 12.0356 8.68115C12.0356 8.66574 12.0365 8.65034 12.0382 8.63503C12.0387 8.63109 12.0389 8.6279 12.0393 8.62397C12.0401 8.61997 12.0407 8.61597 12.0413 8.61197C12.0493 8.56035 12.0665 8.51059 12.0922 8.46509C12.1219 8.41205 12.1623 8.36567 12.2106 8.32884C12.259 8.29201 12.3145 8.26551 12.3735 8.25097C12.4326 8.23643 12.494 8.23417 12.5539 8.24433C12.6139 8.25449 12.6711 8.27685 12.7221 8.31003L13.1227 8.57128L13.1244 8.57253L14.5408 9.49659L14.7281 11.0169ZM31.0625 23.0751C31.0621 23.4479 30.9138 23.8054 30.6502 24.069C30.3865 24.3326 30.0291 24.4809 29.6563 24.4813H12.0675C11.6947 24.4809 11.3372 24.3326 11.0736 24.069C10.81 23.8054 10.6617 23.4479 10.6613 23.0751V14.0788C10.6616 13.8579 10.7139 13.6403 10.8138 13.4434C10.9137 13.2464 11.0585 13.0757 11.2365 12.945L12.9934 13.9453C12.9804 13.9886 12.9738 14.0336 12.9738 14.0788C12.9735 14.319 12.8779 14.5494 12.708 14.7193C12.5381 14.8892 12.3078 14.9847 12.0675 14.985C11.9432 14.985 11.824 15.0344 11.7361 15.1223C11.6481 15.2102 11.5988 15.3295 11.5988 15.4538V21.7C11.5988 21.8244 11.6481 21.9436 11.7361 22.0315C11.824 22.1194 11.9432 22.1688 12.0675 22.1688C12.3078 22.1691 12.5381 22.2646 12.708 22.4345C12.8779 22.6044 12.9735 22.8348 12.9738 23.075C12.9738 23.1994 13.0231 23.3186 13.1111 23.4065C13.199 23.4944 13.3182 23.5438 13.4425 23.5438H28.2813C28.4056 23.5438 28.5248 23.4944 28.6127 23.4065C28.7006 23.3186 28.75 23.1994 28.75 23.075C28.7503 22.8348 28.8459 22.6044 29.0158 22.4345C29.1856 22.2646 29.416 22.1691 29.6563 22.1688C29.7806 22.1688 29.8998 22.1194 29.9877 22.0315C30.0756 21.9436 30.125 21.8244 30.125 21.7V15.4538C30.125 15.3295 30.0756 15.2102 29.9877 15.1223C29.8998 15.0344 29.7806 14.985 29.6563 14.985C29.416 14.9847 29.1856 14.8892 29.0158 14.7193C28.8459 14.5494 28.7503 14.319 28.75 14.0788C28.75 13.9545 28.7006 13.8352 28.6127 13.7473C28.5248 13.6594 28.4056 13.61 28.2813 13.61H17.092C17.0899 13.4036 17.0465 13.1996 16.9643 13.0102C16.9116 12.8893 16.8433 12.7758 16.7613 12.6725H29.6563C30.0291 12.673 30.3865 12.8213 30.6502 13.0849C30.9138 13.3485 31.0621 13.706 31.0625 14.0788V23.0751Z" fill="white"/>
</svg>
