<svg width="32" height="22" viewBox="0 0 32 22" fill="none" xmlns="http://www.w3.org/2000/svg">
<path d="M0 0V2H19V17H12.844C12.398 15.281 10.852 14 9 14C7.148 14 5.602 15.281 5.156 17H4V12H2V19H5.156C5.602 20.719 7.148 22 9 22C10.852 22 12.398 20.719 12.844 19H21.156C21.602 20.719 23.148 22 25 22C26.852 22 28.398 20.719 28.844 19H32V10.844L31.937 10.687L29.937 4.687L29.72 4H21V0H0ZM1 4V6H10V4H1ZM21 6H28.281L30 11.125V17H28.844C28.398 15.281 26.852 14 25 14C23.148 14 21.602 15.281 21.156 17H21V6ZM2 8V10H8V8H2ZM9 16C10.117 16 11 16.883 11 18C11 19.117 10.117 20 9 20C7.883 20 7 19.117 7 18C7 16.883 7.883 16 9 16ZM25 16C26.117 16 27 16.883 27 18C27 19.117 26.117 20 25 20C23.883 20 23 19.117 23 18C23 16.883 23.883 16 25 16Z" fill="white"/>
</svg>
