<svg width="28" height="28" viewBox="0 0 28 28" fill="none" xmlns="http://www.w3.org/2000/svg">
<path d="M26.2325 10.8525C25.7612 10.36 25.2738 9.8525 25.09 9.40625C24.92 8.9975 24.91 8.32 24.9 7.66375C24.8813 6.44375 24.8612 5.06125 23.9 4.1C22.9387 3.13875 21.5562 3.11875 20.3363 3.1C19.68 3.09 19.0025 3.08 18.5938 2.91C18.1488 2.72625 17.64 2.23875 17.1475 1.7675C16.285 0.93875 15.305 0 14 0C12.695 0 11.7162 0.93875 10.8525 1.7675C10.36 2.23875 9.8525 2.72625 9.40625 2.91C9 3.08 8.32 3.09 7.66375 3.1C6.44375 3.11875 5.06125 3.13875 4.1 4.1C3.13875 5.06125 3.125 6.44375 3.1 7.66375C3.09 8.32 3.08 8.9975 2.91 9.40625C2.72625 9.85125 2.23875 10.36 1.7675 10.8525C0.93875 11.715 0 12.695 0 14C0 15.305 0.93875 16.2837 1.7675 17.1475C2.23875 17.64 2.72625 18.1475 2.91 18.5938C3.08 19.0025 3.09 19.68 3.1 20.3363C3.11875 21.5562 3.13875 22.9387 4.1 23.9C5.06125 24.8612 6.44375 24.8813 7.66375 24.9C8.32 24.91 8.9975 24.92 9.40625 25.09C9.85125 25.2738 10.36 25.7612 10.8525 26.2325C11.715 27.0613 12.695 28 14 28C15.305 28 16.2837 27.0613 17.1475 26.2325C17.64 25.7612 18.1475 25.2738 18.5938 25.09C19.0025 24.92 19.68 24.91 20.3363 24.9C21.5562 24.8813 22.9387 24.8612 23.9 23.9C24.8612 22.9387 24.8813 21.5562 24.9 20.3363C24.91 19.68 24.92 19.0025 25.09 18.5938C25.2738 18.1488 25.7612 17.64 26.2325 17.1475C27.0613 16.285 28 15.305 28 14C28 12.695 27.0613 11.7162 26.2325 10.8525ZM24.7887 15.7638C24.19 16.3888 23.57 17.035 23.2412 17.8288C22.9262 18.5913 22.9125 19.4625 22.9 20.3062C22.8875 21.1812 22.8738 22.0975 22.485 22.485C22.0963 22.8725 21.1862 22.8875 20.3062 22.9C19.4625 22.9125 18.5913 22.9262 17.8288 23.2412C17.035 23.57 16.3888 24.19 15.7638 24.7887C15.1388 25.3875 14.5 26 14 26C13.5 26 12.8562 25.385 12.2362 24.7887C11.6163 24.1925 10.965 23.57 10.1713 23.2412C9.40875 22.9262 8.5375 22.9125 7.69375 22.9C6.81875 22.8875 5.9025 22.8738 5.515 22.485C5.1275 22.0963 5.1125 21.1862 5.1 20.3062C5.0875 19.4625 5.07375 18.5913 4.75875 17.8288C4.43 17.035 3.81 16.3888 3.21125 15.7638C2.6125 15.1388 2 14.5 2 14C2 13.5 2.615 12.8562 3.21125 12.2362C3.8075 11.6163 4.43 10.965 4.75875 10.1713C5.07375 9.40875 5.0875 8.5375 5.1 7.69375C5.1125 6.81875 5.12625 5.9025 5.515 5.515C5.90375 5.1275 6.81375 5.1125 7.69375 5.1C8.5375 5.0875 9.40875 5.07375 10.1713 4.75875C10.965 4.43 11.6112 3.81 12.2362 3.21125C12.8612 2.6125 13.5 2 14 2C14.5 2 15.1438 2.615 15.7638 3.21125C16.3838 3.8075 17.035 4.43 17.8288 4.75875C18.5913 5.07375 19.4625 5.0875 20.3062 5.1C21.1812 5.1125 22.0975 5.12625 22.485 5.515C22.8725 5.90375 22.8875 6.81375 22.9 7.69375C22.9125 8.5375 22.9262 9.40875 23.2412 10.1713C23.57 10.965 24.19 11.6112 24.7887 12.2362C25.3875 12.8612 26 13.5 26 14C26 14.5 25.385 15.1438 24.7887 15.7638ZM19.7075 10.2925C19.8005 10.3854 19.8742 10.4957 19.9246 10.6171C19.9749 10.7385 20.0008 10.8686 20.0008 11C20.0008 11.1314 19.9749 11.2615 19.9246 11.3829C19.8742 11.5043 19.8005 11.6146 19.7075 11.7075L12.7075 18.7075C12.6146 18.8005 12.5043 18.8742 12.3829 18.9246C12.2615 18.9749 12.1314 19.0008 12 19.0008C11.8686 19.0008 11.7385 18.9749 11.6171 18.9246C11.4957 18.8742 11.3854 18.8005 11.2925 18.7075L8.2925 15.7075C8.19959 15.6146 8.12589 15.5043 8.07561 15.3829C8.02532 15.2615 7.99944 15.1314 7.99944 15C7.99944 14.8686 8.02532 14.7385 8.07561 14.6171C8.12589 14.4957 8.19959 14.3854 8.2925 14.2925C8.48014 14.1049 8.73464 13.9994 9 13.9994C9.1314 13.9994 9.2615 14.0253 9.3829 14.0756C9.50429 14.1259 9.61459 14.1996 9.7075 14.2925L12 16.5863L18.2925 10.2925C18.3854 10.1995 18.4957 10.1258 18.6171 10.0754C18.7385 10.0251 18.8686 9.99921 19 9.99921C19.1314 9.99921 19.2615 10.0251 19.3829 10.0754C19.5043 10.1258 19.6146 10.1995 19.7075 10.2925Z" fill="white"/>
</svg>
