<svg width="26" height="26" viewBox="0 0 26 26" fill="none" xmlns="http://www.w3.org/2000/svg">
<path d="M25 11.6667V7.66667C25 6.95942 24.719 6.28115 24.219 5.78105C23.7189 5.28095 23.0406 5 22.3333 5H14.3333M14.3333 5L18.3333 9M14.3333 5L18.3333 1M1 14.3333V18.3333C1 19.0406 1.28095 19.7189 1.78105 20.219C2.28115 20.719 2.95942 21 3.66667 21H11.6667M11.6667 21L7.66667 17M11.6667 21L7.66667 25M1 2.33333C1 1.97971 1.14048 1.64057 1.39052 1.39052C1.64057 1.14048 1.97971 1 2.33333 1H7.66667C8.02029 1 8.35943 1.14048 8.60948 1.39052C8.85952 1.64057 9 1.97971 9 2.33333V7.66667C9 8.02029 8.85952 8.35943 8.60948 8.60948C8.35943 8.85952 8.02029 9 7.66667 9H2.33333C1.97971 9 1.64057 8.85952 1.39052 8.60948C1.14048 8.35943 1 8.02029 1 7.66667V2.33333ZM17 18.3333C17 17.9797 17.1405 17.6406 17.3905 17.3905C17.6406 17.1405 17.9797 17 18.3333 17H23.6667C24.0203 17 24.3594 17.1405 24.6095 17.3905C24.8595 17.6406 25 17.9797 25 18.3333V23.6667C25 24.0203 24.8595 24.3594 24.6095 24.6095C24.3594 24.8595 24.0203 25 23.6667 25H18.3333C17.9797 25 17.6406 24.8595 17.3905 24.6095C17.1405 24.3594 17 24.0203 17 23.6667V18.3333Z" stroke="white" stroke-width="2" stroke-linecap="round" stroke-linejoin="round"/>
</svg>
